<svg width="48" height="48" viewBox="0 0 48 48" fill="none" xmlns="http://www.w3.org/2000/svg">
<path d="M35.84 23.2404C35.7448 22.9949 35.6021 22.7706 35.42 22.5804L25.42 12.5804C25.2335 12.3939 25.0121 12.246 24.7685 12.1451C24.5249 12.0441 24.2637 11.9922 24 11.9922C23.4674 11.9922 22.9566 12.2038 22.58 12.5804C22.3935 12.7668 22.2456 12.9882 22.1447 13.2319C22.0438 13.4755 21.9918 13.7367 21.9918 14.0004C21.9918 14.533 22.2034 15.0438 22.58 15.4204L29.18 22.0004H14C13.4696 22.0004 12.9609 22.2111 12.5858 22.5862C12.2107 22.9612 12 23.4699 12 24.0004C12 24.5308 12.2107 25.0395 12.5858 25.4146C12.9609 25.7897 13.4696 26.0004 14 26.0004H29.18L22.58 32.5804C22.3925 32.7663 22.2438 32.9875 22.1422 33.2312C22.0407 33.4749 21.9884 33.7363 21.9884 34.0004C21.9884 34.2644 22.0407 34.5258 22.1422 34.7695C22.2438 35.0132 22.3925 35.2344 22.58 35.4204C22.7659 35.6078 22.9871 35.7566 23.2308 35.8582C23.4746 35.9597 23.736 36.012 24 36.012C24.264 36.012 24.5254 35.9597 24.7692 35.8582C25.0129 35.7566 25.2341 35.6078 25.42 35.4204L35.42 25.4204C35.6021 25.2302 35.7448 25.0059 35.84 24.7604C36.04 24.2734 36.04 23.7273 35.84 23.2404Z" fill="#F5F5F5"/>
</svg>
