<svg width="40" height="40" viewBox="0 0 40 40" fill="none" xmlns="http://www.w3.org/2000/svg">
<path d="M19.9998 3.33301C26.6664 3.33301 37.7775 6.66634 37.7775 21.1108C37.7775 35.5552 37.7775 38.8886 34.4442 38.8886C31.1109 38.8886 26.6664 35.5552 19.9998 35.5552C13.3331 35.5552 8.9831 38.8886 5.55532 38.8886C1.84088 38.8886 2.22199 25.5552 2.22199 21.1108C2.22199 6.66634 13.3331 3.33301 19.9998 3.33301Z" fill="#FFAC33"/>
<path d="M6.66602 20.624C6.66602 11.1507 12.636 3.4707 19.9993 3.4707C27.3627 3.4707 33.3327 11.1507 33.3327 20.624C33.3327 30.0974 27.3627 37.7774 19.9993 37.7774C12.636 37.7774 6.66602 30.0974 6.66602 20.624Z" fill="#FFDC5D"/>
<path d="M19.9994 33.3329C17.3916 33.3329 16.0272 32.0441 15.8805 31.8963C15.4461 31.4618 15.4461 30.7596 15.8805 30.3252C16.3105 29.8952 17.0061 29.8918 17.4405 30.3141C17.4972 30.3663 18.3361 31.1107 19.9994 31.1107C21.6872 31.1107 22.525 30.3441 22.5605 30.3118C23.0027 29.8974 23.7016 29.9096 24.125 30.344C24.5461 30.7807 24.5472 31.4674 24.1183 31.8963C23.9716 32.0441 22.6072 33.3329 19.9994 33.3329Z" fill="#DF1F32"/>
<path d="M21.1107 27.7779H18.8885C18.2751 27.7779 17.7773 27.2812 17.7773 26.6668C17.7773 26.0523 18.2751 25.5557 18.8885 25.5557H21.1107C21.7251 25.5557 22.2218 26.0523 22.2218 26.6668C22.2218 27.2812 21.7251 27.7779 21.1107 27.7779Z" fill="#C1694F"/>
<path d="M3.40375 26.6669C3.37041 26.3058 3.33263 25.948 3.33263 25.5558C3.33263 20.0002 6.66597 26.1802 6.66597 22.2224C6.66597 18.2636 8.88819 17.778 11.1104 15.5558L14.4437 12.2224C14.4437 12.2224 19.9993 15.5558 24.4437 15.5558C28.8882 15.5558 33.3326 17.778 33.3326 22.2224C33.3326 26.6669 36.666 20.0002 36.666 25.5558C36.666 25.9502 36.6293 26.3036 36.6015 26.6669H37.7671C37.7771 25.0258 37.7771 23.1869 37.7771 21.1113C37.7771 6.66688 26.666 1.11133 19.9993 1.11133C13.3326 1.11133 2.22152 6.66688 2.22152 21.1113C2.22152 22.398 2.19041 24.4291 2.23486 26.6669H3.40375Z" fill="#FFAC33"/>
<path d="M14.4451 24.4444C13.8318 24.4444 13.334 23.9478 13.334 23.3333V21.1111C13.334 20.4978 13.8318 20 14.4451 20C15.0584 20 15.5562 20.4978 15.5562 21.1111V23.3333C15.5562 23.9478 15.0584 24.4444 14.4451 24.4444ZM25.5562 24.4444C24.9418 24.4444 24.4451 23.9478 24.4451 23.3333V21.1111C24.4451 20.4978 24.9418 20 25.5562 20C26.1707 20 26.6673 20.4978 26.6673 21.1111V23.3333C26.6673 23.9478 26.1707 24.4444 25.5562 24.4444Z" fill="#662113"/>
</svg>
