<svg width="38" height="38" viewBox="0 0 38 38" fill="none" xmlns="http://www.w3.org/2000/svg">
<g clip-path="url(#clip0_156_613)">
<path d="M2.87111 5.76758H6.59722V8.59541H4.712C2.82678 8.59541 2.82678 9.53802 2.82678 10.4806V18.278C2.82678 19.7125 4.18739 19.9057 4.18739 19.9057H6.59722V22.7335H2.87111C1.28567 22.7335 0 21.4489 0 19.8635V8.63763C0 7.05324 1.28461 5.76758 2.87111 5.76758Z" fill="#FFAC33"/>
<path d="M5.6543 5.76758H21.6766V25.3334C21.6766 26.4945 20.7266 27.4445 19.5655 27.4445H7.76541C6.6043 27.4445 5.6543 26.4945 5.6543 25.3334V5.76758Z" fill="#FFAC33"/>
<path d="M8.95291 24.6166C9.4733 24.6166 9.89552 24.1955 9.89552 23.674V13.3074C9.89552 12.787 9.47435 12.3648 8.95291 12.3648C8.43252 12.3648 8.0103 12.786 8.0103 13.3074V23.674C8.0103 24.1955 8.43252 24.6166 8.95291 24.6166ZM13.6649 24.6166C14.1853 24.6166 14.6075 24.1955 14.6075 23.674V13.3074C14.6075 12.787 14.1864 12.3648 13.6649 12.3648C13.1445 12.3648 12.7223 12.786 12.7223 13.3074V23.674C12.7234 24.1955 13.1445 24.6166 13.6649 24.6166ZM5.6543 9.05141V5.76758H21.6766V10.9166C21.3684 11.0295 21.039 11.1013 20.6917 11.1013C19.4905 11.1013 18.4635 10.3614 18.036 9.31319C17.7847 9.53063 17.4607 9.66574 17.1039 9.66574C16.6184 9.66574 16.1909 9.42297 15.9312 9.05352C15.4214 9.85152 14.5336 10.3835 13.5161 10.3835C12.583 10.3835 11.7607 9.93069 11.2371 9.24036C10.9754 9.90852 10.3294 10.3835 9.56935 10.3835C8.88852 10.3835 8.30374 9.9993 7.99869 9.44091C7.71369 9.58025 7.39702 9.66574 7.05713 9.66574C6.12613 9.66574 5.6543 9.05141 5.6543 9.05141V9.05141Z" fill="#F4900C"/>
<path d="M8.48213 1.05566H20.734C22.6192 1.05566 23.5618 1.99828 23.5618 3.8835V6.79683C23.5618 8.38228 22.2761 9.66689 20.6917 9.66689C19.4905 9.66689 18.4635 8.92694 18.036 7.87983C17.7847 8.09622 17.4607 8.23239 17.1039 8.23239C16.6184 8.23239 16.1909 7.98961 15.9312 7.62017C15.4214 8.41711 14.5336 8.94911 13.5161 8.94911C12.583 8.94911 11.7607 8.49628 11.2371 7.80594C10.9754 8.47411 10.3294 8.94911 9.56935 8.94911C8.91491 8.94911 8.35546 8.59022 8.04196 8.06561C7.78757 8.30733 7.44663 8.45828 7.06769 8.45828C6.28657 8.45828 5.6543 7.82494 5.6543 7.04489V3.8835C5.6543 1.99828 6.59691 1.05566 8.48213 1.05566Z" fill="#E1E8ED"/>
<path d="M32.1893 6.87558C31.9191 6.87558 31.6489 6.77214 31.4431 6.56631C31.0303 6.15358 31.0303 5.48542 31.4431 5.0727L35.1924 1.32547C35.6051 0.913806 36.2722 0.913806 36.6849 1.32547C37.0977 1.73714 37.0977 2.40636 36.6849 2.81908L32.9356 6.56631C32.7298 6.7732 32.4596 6.87558 32.1893 6.87558V6.87558ZM27.794 5.08431C27.6789 5.08431 27.5607 5.06425 27.4457 5.02414C26.8957 4.83203 26.6054 4.23036 26.7976 3.67936L27.8214 0.752306C28.0146 0.202362 28.6152 -0.0879159 29.1662 0.104195C29.7162 0.296306 30.0064 0.897973 29.8143 1.44897L28.7904 4.37603C28.6384 4.81197 28.2299 5.08431 27.794 5.08431V5.08431ZM34.2783 11.1791C33.8434 11.1791 33.4359 10.9078 33.2829 10.475C33.0887 9.92508 33.3779 9.32236 33.9268 9.12814L36.5593 8.1982C37.1103 8.00292 37.712 8.2932 37.9062 8.84208C38.1004 9.39203 37.8112 9.99475 37.2623 10.189L34.6298 11.1189C34.5126 11.1601 34.3944 11.1791 34.2783 11.1791V11.1791Z" fill="#FA743E"/>
<path d="M35.1285 16.3232H31.4023V19.1511H33.2876C35.1728 19.1511 35.1728 20.0937 35.1728 21.0363V28.8337C35.1728 30.2682 33.8122 30.4614 33.8122 30.4614H31.4023V33.2892H35.1285C36.7139 33.2892 37.9996 32.0046 37.9996 30.4191V19.1933C37.9996 17.6089 36.715 16.3232 35.1285 16.3232Z" fill="#FFAC33"/>
<path d="M32.3445 16.3232H16.3223V35.889C16.3223 37.0501 17.2723 38.0001 18.4334 38.0001H30.2334C31.3945 38.0001 32.3445 37.0501 32.3445 35.889V16.3232Z" fill="#FFCC4D"/>
<path d="M19.6223 35.1718C19.1019 35.1718 18.6797 34.7506 18.6797 34.2291V23.8625C18.6797 23.3421 19.1019 22.9199 19.6223 22.9199C20.1427 22.9199 20.5649 23.3411 20.5649 23.8625V34.2291C20.5649 34.7506 20.1427 35.1718 19.6223 35.1718ZM29.0474 35.1718C28.527 35.1718 28.1047 34.7506 28.1047 34.2291V23.8625C28.1047 23.3421 28.5259 22.9199 29.0474 22.9199C29.5677 22.9199 29.99 23.3411 29.99 23.8625V34.2291C29.99 34.7506 29.5677 35.1718 29.0474 35.1718ZM24.3354 35.1718C23.815 35.1718 23.3927 34.7506 23.3927 34.2291V23.8625C23.3927 23.3421 23.8139 22.9199 24.3354 22.9199C24.8568 22.9199 25.278 23.3411 25.278 23.8625V34.2291C25.2769 34.7506 24.8557 35.1718 24.3354 35.1718Z" fill="#F4900C"/>
<path d="M32.3445 19.6071V16.3232H16.3223V21.4722C16.6305 21.5852 16.9598 21.657 17.3071 21.657C18.5083 21.657 19.5354 20.917 19.9629 19.8689C20.2141 20.0863 20.5382 20.2214 20.8949 20.2214C21.3805 20.2214 21.808 19.9786 22.0677 19.6092C22.5775 20.4072 23.4652 20.9392 24.4828 20.9392C25.4159 20.9392 26.2382 20.4864 26.7617 19.796C27.0235 20.4642 27.6695 20.9392 28.4295 20.9392C29.1103 20.9392 29.6951 20.555 30.0002 19.9966C30.2852 20.1359 30.6018 20.2214 30.9417 20.2214C31.8727 20.2214 32.3445 19.6071 32.3445 19.6071V19.6071Z" fill="#FFAC33"/>
<path d="M29.5172 11.6113H17.2653C15.3801 11.6113 14.4375 12.5539 14.4375 14.4392V17.3525C14.4375 18.9379 15.7232 20.2226 17.3076 20.2226C18.5088 20.2226 19.5358 19.4826 19.9633 18.4355C20.2146 18.6519 20.5386 18.7881 20.8954 18.7881C21.3809 18.7881 21.8084 18.5453 22.0681 18.1758C22.5779 18.9728 23.4657 19.5048 24.4832 19.5048C25.4163 19.5048 26.2386 19.0519 26.7622 18.3616C27.0239 19.0298 27.6699 19.5048 28.4299 19.5048C29.0844 19.5048 29.6438 19.1459 29.9573 18.6213C30.2107 18.863 30.5527 19.0139 30.9306 19.0139C31.7117 19.0139 32.3439 18.3806 32.3439 17.6006V14.4392C32.345 12.5539 31.4024 11.6113 29.5172 11.6113Z" fill="#EEEEEE"/>
</g>
<defs>
<clipPath id="clip0_156_613">
<rect width="38" height="38" fill="white"/>
</clipPath>
</defs>
</svg>
