<svg width="37" height="37" viewBox="0 0 37 37" fill="none" xmlns="http://www.w3.org/2000/svg">
<g clip-path="url(#clip0_156_596)">
<path d="M18.5 37C28.7173 37 37 28.7173 37 18.5C37 8.28273 28.7173 0 18.5 0C8.28273 0 0 8.28273 0 18.5C0 28.7173 8.28273 37 18.5 37Z" fill="#AA8DD8"/>
<path d="M10.2778 4.11116C7.62611 4.11116 4.49036 1.57666 3.50883 0.602322C2.92197 0.014433 2.03603 -0.161317 1.26931 0.157294C0.500528 0.474877 0 1.22413 0 2.0556C0 5.61068 1.71844 12.3334 8.22222 12.3334C9.00025 12.3334 9.7125 11.8935 10.0609 11.1967L12.1165 7.08554C12.4351 6.44832 12.4012 5.69188 12.026 5.08549C11.6519 4.48013 10.99 4.11116 10.2778 4.11116ZM35.7317 0.157294C34.9609 -0.162345 34.0801 0.014433 33.4912 0.60335C32.5806 1.51293 29.3831 4.11116 26.7222 4.11116C26.01 4.11116 25.3481 4.48013 24.974 5.08652C24.5999 5.69188 24.5659 6.44935 24.8835 7.08657L26.9391 11.1977C27.2875 11.8935 27.9987 12.3334 28.7778 12.3334C35.2816 12.3334 37 5.61068 37 2.0556C37 1.22413 36.4995 0.474877 35.7317 0.157294V0.157294Z" fill="#AA8DD8"/>
<path d="M28.0946 26.3412C27.9116 26.1758 27.6383 26.1655 27.4419 26.3114C27.4019 26.3412 23.411 29.292 18.5003 29.292C13.6019 29.292 9.59767 26.3412 9.55861 26.3114C9.3623 26.1655 9.08892 26.1778 8.90597 26.3412C8.72405 26.5057 8.68294 26.777 8.80936 26.9867C8.94194 27.2077 12.1157 32.3753 18.5003 32.3753C24.8848 32.3753 28.0596 27.2077 28.1912 26.9867C28.3176 26.776 28.2775 26.5057 28.0946 26.3412V26.3412ZM16.1436 18.8015C12.7982 15.456 7.42186 15.417 7.19472 15.417C6.62739 15.417 6.16797 15.8764 6.16797 16.4427C6.16694 17.01 6.62636 17.4715 7.19369 17.4725C7.2235 17.4725 9.17217 17.4952 11.2873 18.23C10.6779 18.8878 10.2781 19.9094 10.2781 21.0698C10.2781 23.0575 11.4281 24.667 12.8475 24.667C14.2669 24.667 15.4169 23.0575 15.4169 21.0698C15.4169 20.8909 15.3974 20.7203 15.3789 20.5487C15.3923 20.5487 15.4046 20.5559 15.4169 20.5559C15.6801 20.5559 15.9432 20.4552 16.1436 20.2547C16.5454 19.8529 16.5454 19.2033 16.1436 18.8015V18.8015ZM29.8058 15.417C29.5787 15.417 24.2034 15.456 20.857 18.8015C20.4551 19.2033 20.4551 19.8529 20.857 20.2547C21.0574 20.4552 21.3205 20.5559 21.5836 20.5559C21.597 20.5559 21.6083 20.5487 21.6206 20.5487C21.6042 20.7203 21.5836 20.8909 21.5836 21.0698C21.5836 23.0575 22.7337 24.667 24.1531 24.667C25.5724 24.667 26.7225 23.0575 26.7225 21.0698C26.7225 19.9094 26.3227 18.8878 25.7132 18.23C27.8284 17.4952 29.7771 17.4725 29.8079 17.4725C30.3742 17.4715 30.8336 17.01 30.8326 16.4427C30.8316 15.8764 30.3732 15.417 29.8058 15.417V15.417Z" fill="#553986"/>
</g>
<defs>
<clipPath id="clip0_156_596">
<rect width="37" height="37" fill="white"/>
</clipPath>
</defs>
</svg>
