<svg width="36" height="36" viewBox="0 0 36 36" fill="none" xmlns="http://www.w3.org/2000/svg">
<path d="M17 36C26.3888 36 34 28.3888 34 19C34 9.61116 26.3888 2 17 2C7.61116 2 0 9.61116 0 19C0 28.3888 7.61116 36 17 36Z" fill="#FFCC4D"/>
<path d="M17.999 28.5C19.1036 28.5 19.999 27.3807 19.999 26C19.999 24.6193 19.1036 23.5 17.999 23.5C16.8944 23.5 15.999 24.6193 15.999 26C15.999 27.3807 16.8944 28.5 17.999 28.5Z" fill="#664500"/>
<path d="M8.111 21.383C7.929 21.383 7.744 21.333 7.579 21.229C7.112 20.935 6.972 20.318 7.266 19.85C8.182 18.397 10.967 15.912 14.956 16.888C15.492 17.019 15.82 17.561 15.689 18.097C15.557 18.633 15.013 18.959 14.48 18.83C10.876 17.948 8.978 20.886 8.959 20.916C8.768 21.218 8.443 21.383 8.111 21.383ZM20.084 17.641C19.794 17.641 19.508 17.516 19.31 17.275C18.96 16.848 19.022 16.217 19.45 15.867C22.626 13.263 26.212 14.305 27.665 15.221C28.132 15.515 28.272 16.133 27.977 16.6C27.684 17.065 27.069 17.207 26.601 16.915C26.463 16.831 23.549 15.092 20.717 17.414C20.531 17.567 20.307 17.641 20.084 17.641Z" fill="#664500"/>
<path d="M13.346 31.273C13.278 31.273 13.209 31.264 13.141 31.245C12.743 31.132 12.511 30.718 12.624 30.319C13.061 28.779 12.882 27.29 12.134 26.233C11.637 25.531 10.929 25.102 10.191 25.055C9.77699 25.03 9.46299 24.673 9.48899 24.26C9.51499 23.847 9.86999 23.509 10.284 23.559C11.477 23.633 12.597 24.292 13.357 25.366C14.368 26.795 14.627 28.749 14.066 30.727C13.973 31.058 13.672 31.273 13.346 31.273ZM24.383 28.212C24.241 28.212 24.098 28.172 23.971 28.088C22.804 27.318 22.151 25.971 22.179 24.393C22.208 22.758 22.988 21.24 24.163 20.524C24.516 20.308 24.977 20.42 25.193 20.775C25.409 21.129 25.297 21.589 24.942 21.805C24.207 22.253 23.698 23.304 23.678 24.419C23.658 25.474 24.067 26.355 24.796 26.836C25.142 27.064 25.237 27.529 25.009 27.875C24.865 28.094 24.627 28.212 24.383 28.212Z" fill="#E2A62D"/>
<path d="M17.179 2.72C17.136 2.671 17.069 2.644 16.99 2.629C16.99 2.629 1.066 -0.393996 0.377 0.214004C-0.311 0.823004 0.74 16.998 0.74 16.998C0.745 17.079 0.763 17.148 0.807 17.197C1.411 17.881 5.565 15.193 10.086 11.196C14.608 7.198 17.783 3.404 17.179 2.72Z" fill="#DD2E44"/>
<path d="M0.349005 0.271003C0.334005 0.301003 0.321005 0.342003 0.311005 0.394003C0.470005 1.765 2.006 13.046 2.963 16.572C4.399 15.769 5.858 14.678 7.572 13.319C6.116 10.654 1.158 0.146003 0.349005 0.271003Z" fill="#EA596E"/>
<path d="M29.902 29.229L19.329 27.926C18.199 27.824 16.212 27.814 16.314 26.024C16.407 24.401 18.354 24.651 19.793 24.864L30.431 26.638L29.902 29.229Z" fill="#3B88C3"/>
<path d="M30.43 26.639L26.208 25.915C25.714 25.826 25.274 26.562 25.252 27.341C25.227 28.207 25.479 28.645 25.978 28.747L30.122 29.259L30.43 26.639Z" fill="#88C9F9"/>
<path d="M34.918 26.341L32.296 28.752L27.609 23.655L30.231 21.244C31.592 19.992 33.73 20.082 34.982 21.443L35.117 21.59C36.368 22.952 36.279 25.089 34.918 26.341Z" fill="#3B88C3"/>
<path d="M32.2944 28.7534C33.4205 27.7179 33.2844 25.7375 31.9903 24.33C30.6961 22.9226 28.7341 22.6209 27.608 23.6564C26.4818 24.6918 26.618 26.6722 27.9121 28.0797C29.2062 29.4872 31.1682 29.7888 32.2944 28.7534Z" fill="#88C9F9"/>
<path d="M31.357 27.7338C31.92 27.2161 31.7471 26.1119 30.9707 25.2675C30.1943 24.4231 29.1085 24.1582 28.5454 24.6759C27.9823 25.1937 28.1552 26.2979 28.9316 27.1423C29.708 27.9867 30.7939 28.2516 31.357 27.7338Z" fill="#226699"/>
<path d="M2.5 35C3.32843 35 4 34.3284 4 33.5C4 32.6716 3.32843 32 2.5 32C1.67157 32 1 32.6716 1 33.5C1 34.3284 1.67157 35 2.5 35Z" fill="#55ACEE"/>
<path d="M29 4C30.1046 4 31 3.10457 31 2C31 0.89543 30.1046 0 29 0C27.8954 0 27 0.89543 27 2C27 3.10457 27.8954 4 29 4Z" fill="#55ACEE"/>
<path d="M4.864 29.246L2.526 23.63L0.412003 29.675L4.864 29.246ZM26 5L22 6L23 2L26 5Z" fill="#EA596E"/>
<path d="M31.999 13L36 7.999L33 6L31.999 13Z" fill="#77B255"/>
</svg>
