<svg width="261" height="289" viewBox="0 0 261 289" fill="none" xmlns="http://www.w3.org/2000/svg">
<path d="M12.1785 166.401L5.76422 174.62L9.69523 177.034L-11.4248 267.793L-28.8354 342.477L5.61534 367.815L55.6601 299.772C55.6601 299.772 69.0504 301.049 100.713 293.549C112.902 290.649 124.493 283.011 134.683 273.811C149.927 259.343 163.016 242.762 173.551 224.577L165.61 213.429L109.83 173.541L115.946 166.733L105.147 147.459L98.1715 135.003L153.688 56.9107L153.764 56.8076C155.394 54.5954 156.571 52.0838 157.23 49.4163C157.889 46.7488 158.015 43.9778 157.603 41.2614C157.19 38.5449 156.246 35.9364 154.825 33.5848C153.404 31.2333 151.534 29.1847 149.321 27.5562C148.17 26.7098 146.937 25.9802 145.641 25.3782C141.48 23.4804 136.813 22.996 132.352 23.999C127.89 25.002 123.879 27.4374 120.931 30.9333L32.8767 139.877L20.8995 155.222L16.792 160.48L13.9066 162.313L13.0009 162.896L12.1785 166.401Z" fill="#FAB29A"/>
<g style="mix-blend-mode:multiply" opacity="0.5">
<path d="M12.1765 166.401L5.76218 174.62L9.69317 177.034L-11.4268 267.793C1.49067 285.055 16.2599 297.126 29.6544 289.488C63.2004 270.366 63.1937 242.082 63.1937 242.082C97.6299 273.249 122.67 275.396 134.681 273.825C149.925 259.357 163.014 242.777 173.549 224.592L165.608 213.443L109.828 173.556L115.944 166.748L105.145 147.474L81.2856 186.804L50.5869 181.054L20.8977 155.237L16.7901 160.495L12.999 162.911L12.1765 166.401Z" fill="#CC8A79"/>
</g>
<path d="M52.0176 192.925C49.8667 197.586 49.3516 202.837 50.5557 207.827C51.0014 209.653 51.6764 211.415 52.5646 213.071C53.9971 215.772 55.868 218.216 58.1009 220.303C65.9935 227.834 74.608 224.242 80.4891 219.89C81.2077 218.379 82.0573 216.935 83.028 215.573L99.9358 198.359L133.505 164.155C132.69 157.41 129.908 151.054 125.506 145.878C121.104 140.703 115.276 136.938 108.749 135.052C105.514 134.009 102.183 133.293 98.8056 132.913L70.3282 169.431L67.4229 173.16L52.0176 192.925Z" fill="#FAB29A"/>
<path d="M109.277 256.748C111.062 259.785 113.496 262.391 116.405 264.378C130.185 274.513 136.518 265.902 173.549 224.579C175.626 220.094 175.975 215 174.53 210.273C173.084 205.546 169.945 201.519 165.715 198.963C163.173 197.36 160.445 196.076 157.591 195.139L109.456 245.574C108.361 247.224 107.762 249.154 107.73 251.134C107.698 253.115 108.235 255.063 109.277 256.748Z" fill="#FAB29A"/>
<path d="M83.0375 215.563C79.7842 220.05 77.9876 225.427 77.891 230.968C78.0498 234.556 79.544 237.956 82.0802 240.499C91.1648 249.912 99.9729 251.851 109.465 245.564L157.6 195.129C158.538 189.451 157.568 183.622 154.842 178.553C152.116 173.485 147.787 169.462 142.532 167.115C139.647 165.789 136.622 164.793 133.514 164.145L83.0375 215.563Z" fill="#FAB29A"/>
<g style="mix-blend-mode:multiply" opacity="0.5">
<path d="M26.7778 148.314C26.1232 153.081 25.7727 157.885 25.7284 162.696C25.2728 175.431 27.5092 188.119 32.2914 199.93C36.8145 201.213 42.6208 200.575 50.0084 196.772C48.8115 200.483 48.5744 204.436 49.3191 208.263C49.5771 209.626 49.9751 210.959 50.5068 212.241C51.1971 212.564 51.8802 212.826 52.5633 213.088C53.9958 215.789 55.8667 218.232 58.0996 220.32C65.9922 227.851 74.6068 224.259 80.4879 219.907C81.2065 218.396 82.056 216.952 83.0267 215.59L99.9345 198.376C100.492 196.862 100.955 195.316 101.322 193.745C101.569 192.587 101.442 191.38 100.958 190.299C100.475 189.217 99.6597 188.318 98.6314 187.73C89.0726 182.178 81.0881 176.978 74.3122 172.261C73.7314 171.86 73.1338 171.446 72.5821 171.04C71.8118 170.499 71.0583 169.971 70.3363 169.44C56.3678 159.381 48.1579 151.668 42.2388 147.052C41.6077 146.548 40.9355 146.097 40.2293 145.704C38.1956 144.38 35.7431 143.858 33.3464 144.238C30.9498 144.619 28.7797 145.875 27.2562 147.764C26.9542 148.074 26.7778 148.314 26.7778 148.314Z" fill="#CC8A79"/>
</g>
<g style="mix-blend-mode:multiply" opacity="0.5">
<path d="M83.0375 215.562C79.7842 220.049 77.9877 225.426 77.891 230.967L142.525 167.124C139.64 165.798 136.615 164.802 133.507 164.154L83.0375 215.562Z" fill="#CC8A79"/>
</g>
<g style="mix-blend-mode:multiply" opacity="0.5">
<path d="M109.279 256.746L165.717 198.961C163.175 197.359 160.447 196.074 157.593 195.137L109.458 245.572C108.363 247.222 107.764 249.152 107.732 251.133C107.7 253.113 108.237 255.061 109.279 256.746Z" fill="#CC8A79"/>
</g>
<g style="mix-blend-mode:multiply" opacity="0.5">
<path d="M52.0164 192.92C49.8655 197.582 49.3504 202.833 50.5544 207.823L108.748 135.048C105.513 134.005 102.182 133.289 98.8043 132.909L52.0164 192.92Z" fill="#CC8A79"/>
</g>
<path d="M-12.0661 171.932L-14.9433 243.867L-66.888 314.493L-14.6278 352.93L49.567 265.648C66.1755 235.85 43.3915 208.474 43.3915 208.474C45.6812 209.873 48.0566 211.126 50.5038 212.227C51.194 212.549 51.8772 212.812 52.5603 213.074C77.055 222.862 89.8413 206.231 94.7554 197.168C95.481 195.83 95.6492 194.26 95.2235 192.798C94.7978 191.337 93.8126 190.103 92.4819 189.364C83.758 184.568 75.3885 179.153 67.4377 173.162C58.2902 166.322 49.7988 158.646 42.0732 150.234C40.3825 148.38 38.1574 147.098 35.7059 146.566C33.2544 146.033 30.6979 146.275 28.3902 147.259L27.258 147.753L-4.78022 161.398C-6.8655 162.287 -8.65649 163.748 -9.9459 165.612C-11.2353 167.476 -11.9704 169.668 -12.0661 171.932Z" fill="#FAB29A"/>
</svg>
