<svg width="976" height="976" viewBox="0 0 976 976" fill="none" xmlns="http://www.w3.org/2000/svg">
<path d="M143.715 142.961C188.983 97.6926 242.725 61.7836 301.871 37.2844C361.017 12.7853 424.41 0.175765 488.429 0.175781C552.449 0.175797 615.841 12.7853 674.988 37.2845C734.134 61.7837 787.875 97.6927 833.144 142.961L488.429 487.676L143.715 142.961Z" fill="#FE7763"/>
<path d="M833.144 142.961C878.412 188.23 914.322 241.972 938.821 301.118C963.32 360.265 975.93 423.657 975.93 487.676C975.929 551.696 963.32 615.088 938.821 674.235C914.322 733.381 878.413 787.122 833.144 832.391L488.429 487.676L833.144 142.961Z" fill="#665CFE"/>
<path d="M833.144 832.391C787.875 877.66 734.133 913.569 674.987 938.068C615.841 962.567 552.448 975.177 488.429 975.177C424.409 975.177 361.017 962.567 301.871 938.068C242.724 913.569 188.983 877.66 143.714 832.391L488.429 487.676L833.144 832.391Z" fill="#7711C7"/>
<path d="M143.714 832.391C98.4457 787.122 62.5365 733.38 38.0374 674.234C13.5382 615.088 0.9287 551.695 0.928711 487.676C0.928722 423.657 13.5383 360.264 38.0374 301.118C62.5366 241.972 98.4463 188.23 143.715 142.961L488.429 487.676L143.714 832.391Z" fill="#665CFE"/>
<path fill-rule="evenodd" clip-rule="evenodd" d="M832.79 142.609L143.361 832.038L140.532 829.209L829.962 139.78L832.79 142.609Z" fill="black"/>
<path fill-rule="evenodd" clip-rule="evenodd" d="M832.79 832.037L143.361 142.608L146.189 139.779L835.618 829.209L832.79 832.037Z" fill="black"/>
<path d="M404.753 782.25C404.753 754.25 418.753 707.583 479.42 707.583C540.086 707.583 554.086 707.583 554.086 721.583C554.086 735.583 540.086 754.25 540.086 782.25C540.086 810.25 554.086 828.52 554.086 842.917C554.086 858.517 498.086 856.916 479.42 856.916C418.753 856.916 404.753 810.25 404.753 782.25Z" fill="#FFAC33"/>
<path d="M477.376 838.25C437.588 838.25 405.332 813.176 405.332 782.25C405.332 751.324 437.588 726.25 477.376 726.25C517.164 726.25 549.42 751.324 549.42 782.25C549.42 813.176 517.164 838.25 477.376 838.25Z" fill="#FFDC5D"/>
<path d="M530.753 782.25C530.753 793.203 525.34 798.933 524.719 799.549C522.895 801.374 519.945 801.374 518.121 799.549C516.315 797.743 516.301 794.822 518.074 792.997C518.293 792.759 521.42 789.236 521.42 782.25C521.42 775.161 518.2 771.643 518.065 771.493C516.324 769.636 516.375 766.701 518.2 764.923C520.034 763.154 522.918 763.149 524.719 764.951C525.34 765.567 530.753 771.297 530.753 782.25Z" fill="#DF1F32"/>
<path d="M507.419 777.583L507.419 786.916C507.419 789.492 505.333 791.583 502.753 791.583C500.172 791.583 498.086 789.492 498.086 786.916L498.086 777.583C498.086 775.002 500.172 772.916 502.753 772.916C505.333 772.916 507.419 775.002 507.419 777.583Z" fill="#C1694F"/>
<path d="M502.753 851.951C501.237 852.091 499.734 852.25 498.087 852.25C474.753 852.25 500.709 838.25 484.087 838.25C467.459 838.25 465.42 828.916 456.087 819.583L442.087 805.583C442.087 805.583 456.087 782.25 456.087 763.583C456.087 744.916 465.42 726.25 484.087 726.25C502.753 726.25 474.753 712.25 498.087 712.25C499.743 712.25 501.227 712.404 502.753 712.52L502.753 707.625C495.861 707.583 488.137 707.583 479.42 707.583C418.753 707.583 395.42 754.25 395.42 782.25C395.42 810.25 418.753 856.916 479.42 856.916C484.824 856.916 493.355 857.047 502.753 856.86L502.753 851.951Z" fill="#FFAC33"/>
<path d="M493.42 805.583C493.42 808.159 491.334 810.25 488.753 810.25L479.42 810.25C476.844 810.25 474.753 808.159 474.753 805.583C474.753 803.007 476.844 800.917 479.42 800.917L488.753 800.917C491.334 800.917 493.42 803.007 493.42 805.583ZM493.42 758.917C493.42 761.497 491.334 763.583 488.753 763.583L479.42 763.583C476.844 763.583 474.753 761.497 474.753 758.917C474.753 756.336 476.844 754.25 479.42 754.25L488.753 754.25C491.334 754.25 493.42 756.336 493.42 758.917Z" fill="#662113"/>
<g clip-path="url(#clip0_140_541)">
<path d="M848.31 545.854L831.836 545.854L831.836 533.352L840.171 533.352C848.506 533.352 848.506 529.185 848.506 525.018L848.506 490.545C848.506 484.203 842.49 483.349 842.49 483.349L831.836 483.349L831.836 470.847L848.31 470.847C855.319 470.847 861.003 476.526 861.003 483.536L861.003 533.166C861.003 540.17 855.324 545.854 848.31 545.854Z" fill="#FFAC33"/>
<path d="M836.004 545.854L765.169 545.854L765.169 459.353C765.169 454.22 769.369 450.02 774.502 450.02L826.671 450.02C831.804 450.02 836.004 454.22 836.004 459.353L836.004 545.854Z" fill="#FFAC33"/>
<path d="M821.421 462.522C819.12 462.522 817.253 464.384 817.253 466.689L817.253 512.52C817.253 514.821 819.115 516.688 821.421 516.688C823.721 516.688 825.588 514.826 825.588 512.52L825.588 466.689C825.588 464.384 823.721 462.522 821.421 462.522ZM800.589 462.522C798.288 462.522 796.421 464.384 796.421 466.689L796.421 512.52C796.421 514.821 798.283 516.688 800.589 516.688C802.889 516.688 804.756 514.826 804.756 512.52L804.756 466.689C804.751 464.384 802.889 462.522 800.589 462.522ZM836.004 531.336L836.004 545.854L765.169 545.854L765.169 523.09C766.531 522.591 767.987 522.274 769.523 522.274C774.833 522.274 779.374 525.545 781.264 530.179C782.375 529.218 783.807 528.62 785.385 528.62C787.531 528.62 789.421 529.694 790.569 531.327C792.823 527.799 796.748 525.447 801.247 525.447C805.372 525.447 809.007 527.449 811.322 530.501C812.479 527.547 815.335 525.447 818.695 525.447C821.705 525.447 824.291 527.146 825.639 529.614C826.899 528.998 828.299 528.62 829.802 528.62C833.918 528.62 836.004 531.336 836.004 531.336V531.336Z" fill="#F4900C"/>
<path d="M823.502 566.687L769.336 566.687C761.001 566.687 756.834 562.519 756.834 554.185L756.834 541.305C756.834 534.295 762.518 528.616 769.523 528.616C774.833 528.616 779.374 531.887 781.264 536.517C782.375 535.56 783.807 534.958 785.385 534.958C787.531 534.958 789.421 536.031 790.569 537.665C792.823 534.141 796.748 531.789 801.247 531.789C805.372 531.789 809.007 533.791 811.322 536.843C812.479 533.889 815.335 531.789 818.695 531.789C821.589 531.789 824.062 533.376 825.448 535.695C826.573 534.627 828.08 533.959 829.755 533.959C833.209 533.959 836.004 536.759 836.004 540.208L836.004 554.185C836.004 562.519 831.837 566.687 823.502 566.687Z" fill="#E1E8ED"/>
<path d="M718.693 540.955C719.887 540.955 721.082 541.412 721.992 542.322C723.817 544.147 723.817 547.101 721.992 548.925L705.416 565.492C703.591 567.312 700.642 567.312 698.817 565.492C696.993 563.672 696.993 560.713 698.817 558.889L715.393 542.322C716.303 541.407 717.498 540.955 718.693 540.955V540.955ZM738.125 548.874C738.633 548.874 739.156 548.963 739.665 549.14C742.096 549.989 743.379 552.649 742.53 555.085L738.003 568.026C737.149 570.457 734.494 571.741 732.058 570.891C729.627 570.042 728.343 567.382 729.193 564.946L733.719 552.005C734.391 550.078 736.197 548.874 738.125 548.874V548.874ZM709.457 521.929C711.38 521.929 713.181 523.128 713.858 525.041C714.717 527.473 713.438 530.137 711.011 530.996L699.373 535.107C696.937 535.971 694.277 534.687 693.418 532.261C692.559 529.829 693.838 527.165 696.265 526.306L707.903 522.195C708.421 522.013 708.944 521.929 709.457 521.929V521.929Z" fill="#FA743E"/>
<path d="M705.697 499.188L722.17 499.188L722.17 486.686L713.835 486.686C705.501 486.686 705.501 482.519 705.501 478.352L705.501 443.879C705.501 437.537 711.516 436.683 711.516 436.683L722.17 436.683L722.17 424.181L705.697 424.181C698.687 424.181 693.003 429.86 693.003 436.87L693.003 486.5C693.003 493.504 698.683 499.188 705.697 499.188Z" fill="#FFAC33"/>
<path d="M718.003 499.188L788.838 499.188L788.838 412.687C788.838 407.554 784.638 403.354 779.505 403.354L727.336 403.354C722.203 403.354 718.003 407.554 718.003 412.687L718.003 499.188Z" fill="#FFCC4D"/>
<path d="M774.255 415.855C776.555 415.855 778.422 417.717 778.422 420.023L778.422 465.854C778.422 468.155 776.555 470.021 774.255 470.021C771.954 470.021 770.087 468.159 770.087 465.854L770.087 420.023C770.087 417.717 771.954 415.855 774.255 415.855ZM732.586 415.855C734.887 415.855 736.753 417.717 736.753 420.023L736.753 465.854C736.753 468.155 734.891 470.021 732.586 470.021C730.285 470.021 728.419 468.159 728.419 465.854L728.419 420.023C728.419 417.717 730.285 415.855 732.586 415.855ZM753.418 415.855C755.719 415.855 757.585 417.717 757.585 420.023L757.585 465.854C757.585 468.155 755.723 470.021 753.418 470.021C751.113 470.021 749.251 468.159 749.251 465.854L749.251 420.023C749.255 417.717 751.117 415.855 753.418 415.855Z" fill="#F4900C"/>
<path d="M718.003 484.67L718.003 499.188L788.838 499.188L788.838 476.424C787.475 475.925 786.019 475.608 784.484 475.608C779.173 475.608 774.633 478.879 772.743 483.513C771.632 482.552 770.199 481.954 768.622 481.954C766.475 481.954 764.585 483.028 763.437 484.661C761.183 481.133 757.259 478.781 752.76 478.781C748.635 478.781 744.999 480.783 742.685 483.835C741.527 480.881 738.671 478.781 735.311 478.781C732.301 478.781 729.716 480.48 728.367 482.948C727.107 482.332 725.707 481.954 724.205 481.954C720.089 481.954 718.003 484.67 718.003 484.67V484.67Z" fill="#FFAC33"/>
<path d="M730.504 520.021L784.67 520.021C793.005 520.021 797.172 515.853 797.172 507.519L797.172 494.639C797.172 487.629 791.488 481.95 784.483 481.95C779.173 481.95 774.632 485.221 772.742 489.851C771.631 488.894 770.199 488.292 768.621 488.292C766.475 488.292 764.585 489.365 763.437 490.999C761.183 487.475 757.258 485.123 752.759 485.123C748.634 485.123 744.999 487.125 742.684 490.177C741.527 487.223 738.671 485.123 735.311 485.123C732.417 485.123 729.944 486.71 728.558 489.029C727.438 487.96 725.926 487.293 724.255 487.293C720.802 487.293 718.007 490.093 718.007 493.542L718.007 507.518C718.002 515.853 722.169 520.021 730.504 520.021Z" fill="#EEEEEE"/>
</g>
<g clip-path="url(#clip1_140_541)">
<path d="M122.55 428.853H139.023V441.355H130.688C122.354 441.355 122.354 445.522 122.354 449.689L122.354 484.162C122.354 490.504 128.369 491.358 128.369 491.358H139.023V503.86H122.55C115.54 503.86 109.856 498.181 109.856 491.171L109.856 441.541C109.856 434.537 115.536 428.853 122.55 428.853Z" fill="#FFAC33"/>
<path d="M134.855 428.853H205.691L205.691 515.354C205.691 520.487 201.491 524.687 196.357 524.687H144.189C139.055 524.687 134.855 520.487 134.855 515.354L134.855 428.853Z" fill="#FFAC33"/>
<path d="M149.439 512.185C151.739 512.185 153.606 510.323 153.606 508.018L153.606 462.187C153.606 459.886 151.744 458.019 149.439 458.019C147.138 458.019 145.271 459.881 145.271 462.187L145.271 508.018C145.271 510.323 147.138 512.185 149.439 512.185ZM170.271 512.185C172.571 512.185 174.438 510.323 174.438 508.018V462.187C174.438 459.886 172.576 458.019 170.271 458.019C167.97 458.019 166.103 459.881 166.103 462.187V508.018C166.108 510.323 167.97 512.185 170.271 512.185ZM134.855 443.371V428.853H205.691V451.617C204.328 452.116 202.872 452.433 201.337 452.433C196.026 452.433 191.485 449.162 189.595 444.528C188.485 445.489 187.052 446.087 185.475 446.087C183.328 446.087 181.438 445.013 180.29 443.38C178.036 446.908 174.111 449.26 169.613 449.26C165.487 449.26 161.852 447.258 159.537 444.206C158.38 447.16 155.524 449.26 152.164 449.26C149.154 449.26 146.569 447.561 145.22 445.093C143.96 445.709 142.56 446.087 141.057 446.087C136.941 446.087 134.855 443.371 134.855 443.371V443.371Z" fill="#F4900C"/>
<path d="M147.357 408.021H201.523C209.858 408.021 214.025 412.188 214.025 420.523V433.403C214.025 440.412 208.341 446.091 201.337 446.091C196.026 446.091 191.485 442.82 189.595 438.191C188.485 439.147 187.052 439.749 185.475 439.749C183.328 439.749 181.438 438.676 180.29 437.043C178.036 440.566 174.111 442.918 169.613 442.918C165.487 442.918 161.852 440.916 159.537 437.864C158.38 440.818 155.524 442.918 152.164 442.918C149.271 442.918 146.797 441.331 145.411 439.012C144.287 440.081 142.779 440.748 141.104 440.748C137.651 440.748 134.855 437.948 134.855 434.499V420.523C134.855 412.188 139.023 408.021 147.357 408.021Z" fill="#E1E8ED"/>
<path d="M252.167 433.752C250.972 433.752 249.777 433.295 248.867 432.385C247.043 430.56 247.043 427.606 248.867 425.782L265.443 409.215C267.268 407.395 270.217 407.395 272.042 409.215C273.867 411.035 273.867 413.994 272.042 415.818L255.466 432.385C254.556 433.3 253.361 433.752 252.167 433.752V433.752ZM232.735 425.833C232.226 425.833 231.703 425.744 231.195 425.567C228.763 424.718 227.48 422.058 228.329 419.622L232.856 406.681C233.71 404.25 236.365 402.966 238.801 403.816C241.233 404.665 242.516 407.325 241.667 409.761L237.14 422.702C236.468 424.629 234.662 425.833 232.735 425.833V425.833ZM261.402 452.778C259.479 452.778 257.678 451.579 257.001 449.666C256.143 447.234 257.421 444.57 259.848 443.711L271.487 439.6C273.923 438.736 276.583 440.02 277.441 442.446C278.3 444.878 277.021 447.542 274.595 448.401L262.956 452.512C262.438 452.694 261.915 452.778 261.402 452.778V452.778Z" fill="#FA743E"/>
<path d="M265.163 475.519H248.689V488.021H257.024C265.359 488.021 265.359 492.188 265.359 496.355V530.828C265.359 537.17 259.343 538.024 259.343 538.024H248.689L248.689 550.526H265.163C272.172 550.526 277.856 544.847 277.856 537.837V488.207C277.856 481.203 272.177 475.519 265.163 475.519Z" fill="#FFAC33"/>
<path d="M252.857 475.519H182.021L182.021 562.02C182.021 567.153 186.221 571.353 191.355 571.353H243.523C248.657 571.353 252.857 567.153 252.857 562.02V475.519Z" fill="#FFCC4D"/>
<path d="M196.605 558.852C194.304 558.852 192.438 556.99 192.438 554.684V508.853C192.438 506.552 194.304 504.686 196.605 504.686C198.906 504.686 200.772 506.548 200.772 508.853V554.684C200.772 556.99 198.906 558.852 196.605 558.852ZM238.273 558.852C235.973 558.852 234.106 556.99 234.106 554.684V508.853C234.106 506.552 235.968 504.686 238.273 504.686C240.574 504.686 242.441 506.548 242.441 508.853L242.441 554.684C242.441 556.99 240.574 558.852 238.273 558.852ZM217.442 558.852C215.141 558.852 213.274 556.99 213.274 554.684L213.274 508.853C213.274 506.552 215.136 504.686 217.442 504.686C219.747 504.686 221.609 506.548 221.609 508.853L221.609 554.684C221.604 556.99 219.742 558.852 217.442 558.852Z" fill="#F4900C"/>
<path d="M252.857 490.037V475.519H182.021V498.283C183.384 498.782 184.84 499.099 186.375 499.099C191.686 499.099 196.227 495.828 198.117 491.194C199.227 492.155 200.66 492.753 202.237 492.753C204.384 492.753 206.274 491.679 207.422 490.046C209.676 493.574 213.601 495.926 218.099 495.926C222.225 495.926 225.86 493.924 228.175 490.872C229.332 493.826 232.188 495.926 235.548 495.926C238.558 495.926 241.143 494.227 242.492 491.759C243.752 492.375 245.152 492.753 246.655 492.753C250.771 492.753 252.857 490.037 252.857 490.037V490.037Z" fill="#FFAC33"/>
<path d="M240.356 454.687H186.189C177.855 454.687 173.688 458.854 173.688 467.189V480.069C173.688 487.078 179.371 492.757 186.376 492.757C191.687 492.757 196.227 489.486 198.117 484.857C199.228 485.813 200.661 486.415 202.238 486.415C204.385 486.415 206.275 485.342 207.423 483.709C209.677 487.232 213.601 489.584 218.1 489.584C222.225 489.584 225.861 487.582 228.175 484.53C229.333 487.484 232.189 489.584 235.549 489.584C238.442 489.584 240.916 487.997 242.302 485.678C243.422 486.747 244.933 487.414 246.604 487.414C250.057 487.414 252.853 484.614 252.853 481.165V467.189C252.858 458.854 248.69 454.687 240.356 454.687Z" fill="#EEEEEE"/>
</g>
<g clip-path="url(#clip2_140_541)">
<path d="M391.107 190.104C391.107 236.495 428.716 274.104 475.107 274.104C521.499 274.104 559.107 236.495 559.107 190.104C559.107 143.712 521.499 106.104 475.107 106.104C428.716 106.104 391.107 143.712 391.107 190.104Z" fill="#7711C7"/>
<path d="M540.441 152.77C540.441 140.73 551.949 126.492 556.373 122.036C559.042 119.371 559.84 115.348 558.393 111.867C556.951 108.376 553.549 106.104 549.774 106.104C533.632 106.104 503.107 113.906 503.107 143.437C503.107 146.97 505.105 150.204 508.269 151.786L526.935 161.119C529.829 162.566 533.263 162.412 536.017 160.708C538.765 159.01 540.441 156.004 540.441 152.77ZM558.393 268.345C559.845 264.845 559.042 260.846 556.368 258.172C552.238 254.037 540.441 239.519 540.441 227.437C540.441 224.203 538.765 221.198 536.012 219.499C533.263 217.8 529.824 217.646 526.931 219.088L508.264 228.422C505.105 230.004 503.107 233.233 503.107 236.77C503.107 266.301 533.632 274.104 549.774 274.104C553.549 274.104 556.951 271.831 558.393 268.345Z" fill="#7711C7"/>
<path d="M439.504 233.667C440.256 232.836 440.302 231.595 439.64 230.704C439.504 230.522 426.106 212.401 426.106 190.104C426.106 167.862 439.504 149.681 439.64 149.504C440.302 148.612 440.246 147.371 439.504 146.54C438.758 145.714 437.526 145.528 436.574 146.102C435.57 146.704 412.106 161.114 412.106 190.104C412.106 219.093 435.57 233.508 436.574 234.106C437.53 234.68 438.758 234.498 439.504 233.667V233.667ZM473.739 179.403C488.929 164.213 489.106 139.802 489.106 138.77C489.106 136.194 487.02 134.108 484.449 134.108C481.873 134.104 479.778 136.19 479.773 138.766C479.773 138.901 479.67 147.749 476.334 157.353C473.347 154.586 468.708 152.77 463.44 152.77C454.414 152.77 447.106 157.992 447.106 164.437C447.106 170.882 454.414 176.104 463.44 176.104C464.252 176.104 465.026 176.015 465.806 175.931C465.806 175.992 465.773 176.048 465.773 176.104C465.773 177.298 466.23 178.493 467.14 179.403C468.965 181.228 471.914 181.228 473.739 179.403V179.403ZM489.106 241.437C489.106 240.406 488.929 215.999 473.739 200.804C471.914 198.98 468.965 198.98 467.14 200.804C466.23 201.714 465.773 202.909 465.773 204.104C465.773 204.164 465.806 204.216 465.806 204.272C465.026 204.197 464.252 204.104 463.44 204.104C454.414 204.104 447.106 209.326 447.106 215.77C447.106 222.215 454.414 227.437 463.44 227.437C468.708 227.437 473.347 225.622 476.334 222.854C479.67 232.458 479.773 241.306 479.773 241.446C479.778 244.018 481.873 246.104 484.449 246.099C487.02 246.094 489.106 244.013 489.106 241.437V241.437Z" fill="#420A6A"/>
</g>
<defs>
<clipPath id="clip0_140_541">
<rect width="168" height="168" fill="white" transform="translate(861.003 571.354) rotate(-180)"/>
</clipPath>
<clipPath id="clip1_140_541">
<rect width="168" height="168" fill="white" transform="translate(109.856 403.354)"/>
</clipPath>
<clipPath id="clip2_140_541">
<rect width="168" height="168" fill="white" transform="translate(559.106 106.104) rotate(90)"/>
</clipPath>
</defs>
</svg>
