<svg width="1385" height="159" viewBox="0 0 1385 159" fill="none" xmlns="http://www.w3.org/2000/svg">
<path d="M1082 115L1082.68 119.127C1083.29 122.819 1086.18 125.712 1089.87 126.32L1094 127L1089.87 127.68C1086.18 128.288 1083.29 131.181 1082.68 134.873L1082 139L1081.32 134.873C1080.71 131.181 1077.82 128.288 1074.13 127.68L1070 127L1074.13 126.32C1077.82 125.712 1080.71 122.819 1081.32 119.127L1082 115Z" fill="#7711C7"/>
<path d="M94 0L95.1897 7.22284C96.2538 13.6829 101.317 18.7462 107.777 19.8103L115 21L107.777 22.1897C101.317 23.2538 96.2538 28.3171 95.1897 34.7772L94 42L92.8103 34.7772C91.7462 28.3171 86.6829 23.2538 80.2228 22.1897L73 21L80.2228 19.8103C86.6829 18.7462 91.7462 13.6829 92.8103 7.22283L94 0Z" fill="#7711C7"/>
<path d="M194 34L194.567 37.4394C195.073 40.5157 197.484 42.9268 200.561 43.4335L204 44L200.561 44.5665C197.484 45.0732 195.073 47.4843 194.567 50.5606L194 54L193.433 50.5606C192.927 47.4843 190.516 45.0732 187.439 44.5665L184 44L187.439 43.4335C190.516 42.9268 192.927 40.5157 193.433 37.4394L194 34Z" fill="#7711C7"/>
<path d="M230 89L230.567 92.4394C231.073 95.5157 233.484 97.9268 236.561 98.4335L240 99L236.561 99.5665C233.484 100.073 231.073 102.484 230.567 105.561L230 109L229.433 105.561C228.927 102.484 226.516 100.073 223.439 99.5665L220 99L223.439 98.4335C226.516 97.9268 228.927 95.5157 229.433 92.4394L230 89Z" fill="#7711C7"/>
<path d="M10 72L10.5665 75.4394C11.0732 78.5157 13.4843 80.9268 16.5606 81.4335L20 82L16.5606 82.5665C13.4843 83.0732 11.0732 85.4843 10.5665 88.5606L10 92L9.43347 88.5606C8.92676 85.4843 6.51569 83.0732 3.43944 82.5665L0 82L3.43945 81.4335C6.51569 80.9268 8.92676 78.5157 9.43347 75.4394L10 72Z" fill="#7711C7"/>
<path d="M396.5 27L397.605 33.7069C398.593 39.7056 403.294 44.4072 409.293 45.3953L416 46.5L409.293 47.6047C403.294 48.5928 398.593 53.2944 397.605 59.2931L396.5 66L395.395 59.2931C394.407 53.2944 389.706 48.5928 383.707 47.6047L377 46.5L383.707 45.3953C389.706 44.4072 394.407 39.7056 395.395 33.7069L396.5 27Z" fill="#7711C7"/>
<path d="M1143 42L1143.85 47.1592C1144.61 51.7735 1148.23 55.3901 1152.84 56.1502L1158 57L1152.84 57.8498C1148.23 58.6099 1144.61 62.2265 1143.85 66.8408L1143 72L1142.15 66.8408C1141.39 62.2265 1137.77 58.6099 1133.16 57.8498L1128 57L1133.16 56.1502C1137.77 55.3901 1141.39 51.7735 1142.15 47.1592L1143 42Z" fill="#7711C7"/>
<path d="M1359.5 5L1360.94 13.7706C1362.24 21.615 1368.38 27.7632 1376.23 29.0553L1385 30.5L1376.23 31.9447C1368.38 33.2368 1362.24 39.385 1360.94 47.2294L1359.5 56L1358.06 47.2294C1356.76 39.385 1350.62 33.2368 1342.77 31.9447L1334 30.5L1342.77 29.0553C1350.62 27.7632 1356.76 21.615 1358.06 13.7706L1359.5 5Z" fill="#7711C7"/>
<path d="M1322 97L1322.68 101.127C1323.29 104.819 1326.18 107.712 1329.87 108.32L1334 109L1329.87 109.68C1326.18 110.288 1323.29 113.181 1322.68 116.873L1322 121L1321.32 116.873C1320.71 113.181 1317.82 110.288 1314.13 109.68L1310 109L1314.13 108.32C1317.82 107.712 1320.71 104.819 1321.32 101.127L1322 97Z" fill="#7711C7"/>
<path d="M420 139L420.567 142.439C421.073 145.516 423.484 147.927 426.561 148.433L430 149L426.561 149.567C423.484 150.073 421.073 152.484 420.567 155.561L420 159L419.433 155.561C418.927 152.484 416.516 150.073 413.439 149.567L410 149L413.439 148.433C416.516 147.927 418.927 145.516 419.433 142.439L420 139Z" fill="#7711C7"/>
<path d="M937 60L937.68 64.1273C938.288 67.8188 941.181 70.7121 944.873 71.3202L949 72L944.873 72.6798C941.181 73.2879 938.288 76.1812 937.68 79.8727L937 84L936.32 79.8727C935.712 76.1812 932.819 73.2879 929.127 72.6798L925 72L929.127 71.3202C932.819 70.7121 935.712 67.8188 936.32 64.1273L937 60Z" fill="#7711C7"/>
</svg>
